<svg width="20" height="20" viewBox="0 0 20 20" fill="none" xmlns="http://www.w3.org/2000/svg">
<g filter="url(#filter0_f_316_105)">
<path d="M-0.115479 10.0426C-0.104873 11.6355 0.349021 13.279 1.03607 14.6057V14.6149C1.53249 15.5784 2.21096 16.3395 2.98372 17.0936L7.65101 15.3906C6.76798 14.942 6.63324 14.6672 6.00026 14.1657C5.35341 13.5134 4.8713 12.7646 4.57106 11.8866H4.55897L4.57106 11.8775C4.37354 11.2977 4.35406 10.6822 4.34677 10.0426H-0.115479Z" fill="url(#paint0_radial_316_105)"/>
</g>
<g filter="url(#filter1_f_316_105)">
<path d="M10.2447 -0.097168C9.78339 1.52349 9.95978 3.09883 10.2447 4.01543C10.7774 4.01582 11.2906 4.07932 11.7772 4.20583C12.8927 4.49584 13.6817 5.06704 14.1652 5.51884L17.1573 2.58874C15.3848 0.963525 13.2516 -0.0946074 10.2447 -0.097168Z" fill="url(#paint1_radial_316_105)"/>
</g>
<g filter="url(#filter2_f_316_105)">
<path d="M10.2348 -0.109985C7.97202 -0.110034 5.88295 0.594978 4.17102 1.78647C3.53538 2.22888 2.95206 2.73992 2.43266 3.30822C2.29659 4.58477 3.45126 6.15378 5.73786 6.1408C6.84731 4.85026 8.48815 4.01528 10.3144 4.01528C10.3161 4.01528 10.3177 4.01542 10.3194 4.01543L10.2448 -0.109693C10.2414 -0.109695 10.2382 -0.109985 10.2348 -0.109985Z" fill="url(#paint2_radial_316_105)"/>
</g>
<g filter="url(#filter3_f_316_105)">
<path d="M17.7031 10.5045L15.6834 11.892C15.5948 12.4361 15.3956 12.9714 15.1042 13.4595C14.7703 14.0186 14.3575 14.4444 13.9345 14.7686C12.6697 15.7378 11.196 15.9373 10.1701 15.9381C9.10975 17.7441 8.92385 18.6487 10.2447 20.1063C11.8791 20.1051 13.3281 19.8101 14.6062 19.2576C15.5301 18.8582 16.3486 18.3373 17.0897 17.6678C18.069 16.7832 18.836 15.689 19.3595 14.4302C19.8829 13.1713 20.1629 11.7478 20.1629 10.2045L17.7031 10.5045Z" fill="url(#paint3_radial_316_105)"/>
</g>
<g filter="url(#filter4_f_316_105)">
<path d="M10.0956 7.97424V12.1111H19.8127C19.8982 11.5445 20.1808 10.8114 20.1808 10.2045C20.1808 9.49521 20.1096 8.62889 19.9888 7.97424H10.0956Z" fill="#3086FF"/>
</g>
<g filter="url(#filter5_f_316_105)">
<path d="M2.47897 3.16217C1.87932 3.81826 1.36703 4.55262 0.960856 5.34682C0.264005 6.70508 -0.117554 8.35634 -0.117554 9.97472C-0.117554 9.99752 -0.115666 10.0198 -0.115514 10.0426C0.1931 10.6343 4.14743 10.521 4.34674 10.0426C4.34649 10.0203 4.34397 9.99852 4.34397 9.97614C4.34397 9.31236 4.45612 8.8231 4.66052 8.22299C4.91269 7.48276 5.30752 6.80111 5.8124 6.21381C5.92685 6.0677 6.23213 5.75357 6.3212 5.56516C6.35513 5.49339 6.2596 5.45311 6.25426 5.42785C6.24829 5.39959 6.12021 5.42231 6.09152 5.40127C6.00042 5.33444 5.82002 5.29955 5.71047 5.26853C5.47632 5.20223 5.08828 5.05603 4.87275 4.90447C4.19146 4.42541 3.12825 3.85317 2.47897 3.16217Z" fill="url(#paint4_radial_316_105)"/>
</g>
<g filter="url(#filter6_f_316_105)">
<path d="M4.88744 5.43065C6.46728 6.38764 6.92161 4.9476 7.97198 4.49698L6.14482 0.707947C5.47269 0.990442 4.83767 1.34142 4.24846 1.7515C3.36853 2.36393 2.59148 3.11127 1.94958 3.96175L4.88744 5.43065Z" fill="url(#paint5_radial_316_105)"/>
</g>
<g filter="url(#filter7_f_316_105)">
<path d="M5.5304 15.0979C3.40967 15.8635 3.07766 15.8909 2.88245 17.2052C3.25549 17.5692 3.65629 17.906 4.08221 18.2113C5.22508 19.0305 7.42346 20.1216 10.235 20.1216C10.2383 20.1216 10.2415 20.1213 10.2448 20.1213V15.8651C10.2426 15.8651 10.2402 15.8653 10.2381 15.8653C9.18523 15.8653 8.34393 15.5887 7.48132 15.1078C7.26864 14.9893 6.88278 15.3077 6.68663 15.1653C6.4161 14.969 5.76504 15.3345 5.5304 15.0979Z" fill="url(#paint6_radial_316_105)"/>
</g>
<g opacity="0.5" filter="url(#filter8_f_316_105)">
<path d="M9.00269 15.7311V20.0476C9.39607 20.0937 9.80546 20.1216 10.2349 20.1216C10.6655 20.1216 11.082 20.0995 11.4867 20.0589V15.7602C11.0331 15.8377 10.606 15.8653 10.238 15.8653C9.81418 15.8653 9.40203 15.8159 9.00269 15.7311Z" fill="url(#paint7_linear_316_105)"/>
</g>
<defs>
<filter id="filter0_f_316_105" x="-0.585558" y="9.57252" width="8.70664" height="7.99112" filterUnits="userSpaceOnUse" color-interpolation-filters="sRGB">
<feFlood flood-opacity="0" result="BackgroundImageFix"/>
<feBlend mode="normal" in="SourceGraphic" in2="BackgroundImageFix" result="shape"/>
<feGaussianBlur stdDeviation="0.23504" result="effect1_foregroundBlur_316_105"/>
</filter>
<filter id="filter1_f_316_105" x="9.49098" y="-0.567247" width="8.13645" height="6.55619" filterUnits="userSpaceOnUse" color-interpolation-filters="sRGB">
<feFlood flood-opacity="0" result="BackgroundImageFix"/>
<feBlend mode="normal" in="SourceGraphic" in2="BackgroundImageFix" result="shape"/>
<feGaussianBlur stdDeviation="0.23504" result="effect1_foregroundBlur_316_105"/>
</filter>
<filter id="filter2_f_316_105" x="1.9518" y="-0.580065" width="8.83762" height="7.19101" filterUnits="userSpaceOnUse" color-interpolation-filters="sRGB">
<feFlood flood-opacity="0" result="BackgroundImageFix"/>
<feBlend mode="normal" in="SourceGraphic" in2="BackgroundImageFix" result="shape"/>
<feGaussianBlur stdDeviation="0.23504" result="effect1_foregroundBlur_316_105"/>
</filter>
<filter id="filter3_f_316_105" x="8.84389" y="9.73439" width="11.789" height="10.842" filterUnits="userSpaceOnUse" color-interpolation-filters="sRGB">
<feFlood flood-opacity="0" result="BackgroundImageFix"/>
<feBlend mode="normal" in="SourceGraphic" in2="BackgroundImageFix" result="shape"/>
<feGaussianBlur stdDeviation="0.23504" result="effect1_foregroundBlur_316_105"/>
</filter>
<filter id="filter4_f_316_105" x="9.6255" y="7.50416" width="11.0254" height="5.077" filterUnits="userSpaceOnUse" color-interpolation-filters="sRGB">
<feFlood flood-opacity="0" result="BackgroundImageFix"/>
<feBlend mode="normal" in="SourceGraphic" in2="BackgroundImageFix" result="shape"/>
<feGaussianBlur stdDeviation="0.23504" result="effect1_foregroundBlur_316_105"/>
</filter>
<filter id="filter5_f_316_105" x="-0.587633" y="2.69209" width="7.3862" height="8.223" filterUnits="userSpaceOnUse" color-interpolation-filters="sRGB">
<feFlood flood-opacity="0" result="BackgroundImageFix"/>
<feBlend mode="normal" in="SourceGraphic" in2="BackgroundImageFix" result="shape"/>
<feGaussianBlur stdDeviation="0.23504" result="effect1_foregroundBlur_316_105"/>
</filter>
<filter id="filter6_f_316_105" x="-1.35527" y="-2.5969" width="12.632" height="11.6541" filterUnits="userSpaceOnUse" color-interpolation-filters="sRGB">
<feFlood flood-opacity="0" result="BackgroundImageFix"/>
<feBlend mode="normal" in="SourceGraphic" in2="BackgroundImageFix" result="shape"/>
<feGaussianBlur stdDeviation="1.65243" result="effect1_foregroundBlur_316_105"/>
</filter>
<filter id="filter7_f_316_105" x="2.41237" y="14.6107" width="8.30246" height="5.98093" filterUnits="userSpaceOnUse" color-interpolation-filters="sRGB">
<feFlood flood-opacity="0" result="BackgroundImageFix"/>
<feBlend mode="normal" in="SourceGraphic" in2="BackgroundImageFix" result="shape"/>
<feGaussianBlur stdDeviation="0.23504" result="effect1_foregroundBlur_316_105"/>
</filter>
<filter id="filter8_f_316_105" x="8.53261" y="15.261" width="3.42417" height="5.33072" filterUnits="userSpaceOnUse" color-interpolation-filters="sRGB">
<feFlood flood-opacity="0" result="BackgroundImageFix"/>
<feBlend mode="normal" in="SourceGraphic" in2="BackgroundImageFix" result="shape"/>
<feGaussianBlur stdDeviation="0.23504" result="effect1_foregroundBlur_316_105"/>
</filter>
<radialGradient id="paint0_radial_316_105" cx="0" cy="0" r="1" gradientTransform="matrix(-0.415601 -9.95993 14.9426 -0.597686 7.55757 16.9435)" gradientUnits="userSpaceOnUse">
<stop offset="0.141612" stop-color="#1ABD4D"/>
<stop offset="0.247515" stop-color="#6EC30D"/>
<stop offset="0.311547" stop-color="#8AC502"/>
<stop offset="0.366013" stop-color="#A2C600"/>
<stop offset="0.445673" stop-color="#C8C903"/>
<stop offset="0.540305" stop-color="#EBCB03"/>
<stop offset="0.615636" stop-color="#F7CD07"/>
<stop offset="0.699345" stop-color="#FDCD04"/>
<stop offset="0.771242" stop-color="#FDCE05"/>
<stop offset="0.860566" stop-color="#FFCE0A"/>
</radialGradient>
<radialGradient id="paint1_radial_316_105" cx="0" cy="0" r="1" gradientTransform="matrix(7.05806 -1.69631e-05 -9.92038e-06 8.92438 16.8774 5.30683)" gradientUnits="userSpaceOnUse">
<stop offset="0.408458" stop-color="#FB4E5A"/>
<stop offset="1" stop-color="#FF4540"/>
</radialGradient>
<radialGradient id="paint2_radial_316_105" cx="0" cy="0" r="1" gradientTransform="matrix(-9.88885 5.36243 7.4323 13.1383 13.023 -1.40182)" gradientUnits="userSpaceOnUse">
<stop offset="0.231273" stop-color="#FF4541"/>
<stop offset="0.311547" stop-color="#FF4540"/>
<stop offset="0.457516" stop-color="#FF4640"/>
<stop offset="0.540305" stop-color="#FF473F"/>
<stop offset="0.699346" stop-color="#FF5138"/>
<stop offset="0.771242" stop-color="#FF5B33"/>
<stop offset="0.860566" stop-color="#FF6C29"/>
<stop offset="1" stop-color="#FF8C18"/>
</radialGradient>
<radialGradient id="paint3_radial_316_105" cx="0" cy="0" r="1" gradientTransform="matrix(-17.9337 -22.9206 -8.64137 6.48127 10.3917 18.8119)" gradientUnits="userSpaceOnUse">
<stop offset="0.131546" stop-color="#0CBA65"/>
<stop offset="0.209784" stop-color="#0BB86D"/>
<stop offset="0.297297" stop-color="#09B479"/>
<stop offset="0.396257" stop-color="#08AD93"/>
<stop offset="0.477124" stop-color="#0AA6A9"/>
<stop offset="0.568425" stop-color="#0D9CC6"/>
<stop offset="0.667385" stop-color="#1893DD"/>
<stop offset="0.768727" stop-color="#258BF1"/>
<stop offset="0.858506" stop-color="#3086FF"/>
</radialGradient>
<radialGradient id="paint4_radial_316_105" cx="0" cy="0" r="1" gradientTransform="matrix(-1.26913 10.7101 15.1251 1.71807 9.36836 1.77895)" gradientUnits="userSpaceOnUse">
<stop offset="0.366013" stop-color="#FF4E3A"/>
<stop offset="0.457516" stop-color="#FF8A1B"/>
<stop offset="0.540305" stop-color="#FFA312"/>
<stop offset="0.615636" stop-color="#FFB60C"/>
<stop offset="0.771242" stop-color="#FFCD0A"/>
<stop offset="0.860566" stop-color="#FECF0A"/>
<stop offset="0.915033" stop-color="#FECF08"/>
<stop offset="1" stop-color="#FDCD01"/>
</radialGradient>
<radialGradient id="paint5_radial_316_105" cx="0" cy="0" r="1" gradientTransform="matrix(-3.66844 3.97231 -11.4435 -10.1305 7.58369 1.66783)" gradientUnits="userSpaceOnUse">
<stop offset="0.315904" stop-color="#FF4C3C"/>
<stop offset="0.603818" stop-color="#FF692C"/>
<stop offset="0.726837" stop-color="#FF7825"/>
<stop offset="0.884534" stop-color="#FF8D1B"/>
<stop offset="1" stop-color="#FF9F13"/>
</radialGradient>
<radialGradient id="paint6_radial_316_105" cx="0" cy="0" r="1" gradientTransform="matrix(-9.88885 -5.36243 7.4323 -13.1383 13.023 21.3527)" gradientUnits="userSpaceOnUse">
<stop offset="0.231273" stop-color="#0FBC5F"/>
<stop offset="0.311547" stop-color="#0FBC5F"/>
<stop offset="0.366013" stop-color="#0FBC5E"/>
<stop offset="0.457516" stop-color="#0FBC5D"/>
<stop offset="0.540305" stop-color="#12BC58"/>
<stop offset="0.699346" stop-color="#28BF3C"/>
<stop offset="0.771242" stop-color="#38C02B"/>
<stop offset="0.860566" stop-color="#52C218"/>
<stop offset="0.915033" stop-color="#67C30F"/>
<stop offset="1" stop-color="#86C504"/>
</radialGradient>
<linearGradient id="paint7_linear_316_105" x1="9.00269" y1="17.9264" x2="11.4867" y2="17.9264" gradientUnits="userSpaceOnUse">
<stop stop-color="#0FBC5C"/>
<stop offset="1" stop-color="#0CBA65"/>
</linearGradient>
</defs>
</svg>
